<?xml version="1.0" standalone="no"?>
<!DOCTYPE svg PUBLIC "-//W3C//DTD SVG 20010904//EN"
 "http://www.w3.org/TR/2001/REC-SVG-20010904/DTD/svg10.dtd">
<svg version="1.0" xmlns="http://www.w3.org/2000/svg"
 width="444.000000pt" height="794.000000pt" viewBox="0 0 444.000000 794.000000"
 preserveAspectRatio="xMidYMid meet">
<metadata>
Created by potrace 1.15, written by Peter Selinger 2001-2017
</metadata>
<g transform="translate(0.000000,794.000000) scale(0.100000,-0.100000)"
fill="#000000" stroke="none">
<path d="M0 5320 l0 -2620 289 0 289 0 1 -165 c1 -90 4 -171 7 -179 4 -11 -3
-17 -23 -21 -135 -29 -287 -194 -419 -455 -15 -30 -33 -62 -40 -70 -6 -8 -33
-54 -58 -102 l-46 -87 0 -328 c0 -309 1 -330 20 -366 14 -26 20 -56 20 -100 0
-35 5 -68 12 -75 9 -9 8 -39 -1 -126 -8 -70 -11 -149 -6 -203 7 -86 6 -89 -19
-112 -14 -14 -26 -31 -26 -40 0 -10 12 -3 35 19 19 19 35 28 35 21 0 -7 11
-27 25 -45 15 -20 23 -40 19 -50 -3 -9 -2 -16 3 -16 12 0 69 90 76 120 3 14
14 57 25 95 18 64 45 226 40 243 -10 34 84 144 192 224 24 19 99 95 165 171
66 75 121 133 123 128 8 -23 -46 -162 -130 -331 -85 -172 -127 -263 -215 -465
-19 -44 -46 -105 -61 -135 -14 -30 -29 -64 -33 -75 -4 -11 -21 -50 -38 -88
-32 -70 -37 -87 -23 -87 5 0 28 46 52 103 41 95 80 183 135 302 13 28 33 75
46 105 12 30 49 111 82 180 124 259 147 311 177 397 16 48 30 96 30 106 0 19
10 41 76 167 22 41 57 118 78 170 21 52 46 113 57 135 20 42 44 108 85 234 47
142 82 205 85 154 1 -10 3 -31 5 -48 6 -48 -13 -151 -55 -295 -48 -167 -88
-277 -111 -310 -23 -32 -51 -100 -42 -100 4 0 14 12 23 28 9 15 47 74 84 132
37 58 70 111 73 119 3 7 31 57 64 109 32 53 58 102 58 110 0 8 9 25 20 39 17
21 21 23 26 9 6 -16 -13 -113 -26 -131 -4 -5 -10 -23 -14 -40 -4 -16 -55 -127
-114 -245 -98 -196 -202 -370 -252 -420 -11 -11 -20 -25 -20 -32 0 -18 92 70
195 188 78 88 106 115 115 109 9 -5 2 -43 -10 -60 -4 -5 -15 -35 -26 -65 -10
-30 -30 -74 -45 -96 -15 -23 -24 -47 -20 -53 4 -6 -7 -41 -25 -79 -17 -37 -40
-94 -50 -127 -16 -51 -30 -71 -94 -134 -68 -68 -67 -74 2 -12 15 13 31 22 34
18 9 -9 -50 -162 -80 -207 -26 -39 -140 -133 -150 -123 -3 3 -6 17 -6 29 0 13
-4 25 -9 29 -5 3 -9 -14 -8 -37 1 -54 -38 -138 -94 -202 -23 -26 -40 -49 -37
-51 10 -10 86 78 112 129 20 39 48 72 102 117 73 60 96 70 75 32 -6 -10 -21
-49 -35 -88 -48 -138 -71 -174 -148 -240 -59 -51 -64 -77 -5 -33 52 39 61 44
54 25 -4 -10 -10 -24 -13 -32 -5 -13 83 -15 759 -15 l765 0 7 67 c4 38 15 118
25 178 16 97 25 135 56 245 10 36 64 130 75 130 12 0 12 -17 0 -24 -5 -3 -14
-30 -21 -58 -7 -29 -23 -87 -36 -128 -13 -41 -31 -113 -40 -160 -9 -47 -18
-94 -21 -105 -9 -37 -22 -110 -22 -127 -1 -17 58 -18 1099 -18 l1100 0 0 318
0 317 -48 40 c-26 22 -67 56 -92 75 -84 64 -104 94 -155 233 -9 27 -19 46 -22
44 -4 -4 77 -233 107 -304 5 -13 8 -23 5 -23 -6 0 -95 117 -95 125 0 4 -17 29
-37 56 -105 135 -247 359 -304 478 -27 57 -49 105 -49 107 0 2 19 3 43 2 23
-1 62 -1 87 0 l45 2 -39 23 c-53 33 -91 94 -121 196 -72 243 -95 291 -167 349
-37 31 -39 72 -2 72 15 0 34 -10 47 -26 12 -14 39 -43 60 -64 21 -22 37 -48
37 -62 0 -64 92 -265 154 -335 21 -24 57 -53 80 -64 33 -17 38 -18 25 -4 -13
13 -15 33 -11 110 5 106 -10 229 -39 313 -37 107 -40 130 -29 236 13 117 19
146 30 146 27 0 309 -395 400 -558 68 -122 85 -147 88 -125 4 25 -117 243
-196 355 -26 37 -74 106 -107 154 -83 121 -147 187 -205 215 -57 27 -65 42
-51 97 6 21 9 80 6 130 -4 68 -2 94 8 97 12 5 266 13 455 14 l92 1 0 2600 0
2600 -2220 0 -2220 0 0 -2620z m2011 -297 c3 -18 6 -63 9 -128 1 -38 6 -83 11
-100 4 -16 10 -48 13 -70 19 -156 23 -172 43 -177 13 -4 27 -33 47 -102 16
-53 33 -99 37 -102 5 -3 9 -14 9 -25 0 -10 5 -19 11 -19 7 0 9 11 6 28 -27
128 -38 216 -41 327 -1 72 -1 136 2 143 6 16 32 -33 32 -59 0 -11 4 -27 10
-37 5 -9 16 -34 25 -54 11 -24 21 -35 31 -31 10 3 12 0 8 -10 -8 -21 13 -57
30 -51 7 3 18 -2 25 -10 10 -12 9 -14 -8 -9 -20 5 -20 4 -7 -28 10 -23 21 -34
35 -34 11 0 23 -4 27 -8 4 -4 2 -7 -4 -7 -7 0 -12 -5 -12 -11 0 -6 7 -8 16 -5
11 4 14 1 9 -13 -4 -14 3 -25 27 -42 18 -13 55 -45 81 -71 27 -26 53 -48 58
-48 13 0 12 15 -16 205 -28 193 -29 205 -15 205 6 0 10 -7 10 -15 0 -7 6 -18
14 -22 7 -4 21 -25 31 -46 10 -21 26 -42 36 -47 10 -6 16 -17 13 -24 -7 -18
14 -59 25 -51 5 3 12 -2 15 -11 3 -8 2 -12 -4 -9 -6 3 -10 1 -10 -4 0 -6 4
-11 10 -11 5 0 9 -3 8 -7 -4 -21 16 -62 33 -66 10 -3 19 -11 19 -19 0 -14 -9
-20 -76 -52 -21 -10 -47 -23 -57 -28 -33 -17 -142 -48 -168 -48 -14 0 -29 -3
-32 -7 -10 -10 14 -34 27 -26 6 4 5 -1 -3 -10 -7 -9 -9 -17 -3 -17 5 0 12 -15
16 -32 l7 -33 19 42 c30 67 139 123 212 109 70 -13 157 -78 158 -118 0 -18 16
-33 23 -21 2 5 0 23 -5 40 -9 36 -92 109 -136 120 -24 6 -24 7 -7 19 11 8 25
14 32 14 19 0 92 53 93 68 0 15 -6 15 -30 2 -23 -12 -26 -3 -35 95 l-6 70 20
-42 c11 -23 31 -52 45 -64 14 -13 26 -29 26 -37 0 -8 6 -26 14 -40 15 -28 70
-170 81 -211 4 -13 10 -64 14 -112 3 -49 10 -90 16 -92 5 -1 17 25 26 58 13
50 17 56 22 35 16 -58 5 -119 -44 -270 -29 -85 -56 -159 -60 -165 -5 -5 -9
-15 -9 -23 0 -8 -22 -60 -48 -116 -42 -87 -59 -111 -118 -165 -86 -79 -160
-128 -293 -194 -86 -42 -114 -51 -155 -51 -68 1 -93 7 -162 39 -186 83 -218
100 -229 124 -5 12 -17 23 -25 26 -8 3 -51 40 -96 84 -95 91 -143 176 -161
286 -3 17 -12 36 -21 43 -11 8 -12 12 -3 12 7 0 10 7 7 18 -3 9 -8 33 -11 52
-3 19 -12 71 -21 115 -8 45 -17 162 -19 268 -4 167 -3 187 11 187 12 0 15 -7
12 -25 -3 -14 -1 -25 4 -25 5 0 7 -4 4 -9 -9 -14 12 -63 24 -56 5 3 10 21 10
38 0 39 17 104 29 112 11 6 150 -56 151 -67 0 -5 -18 -8 -41 -8 -64 0 -89 -19
-132 -98 -12 -23 -15 -38 -8 -50 8 -15 11 -13 20 11 6 16 11 32 11 35 0 17 60
72 85 78 15 4 56 4 91 1 80 -8 136 -43 160 -102 15 -37 17 -39 25 -17 5 13 17
22 29 22 13 0 19 4 14 11 -5 9 1 10 20 5 18 -4 26 -2 26 7 0 16 -62 48 -139
72 -57 17 -91 32 -230 96 -71 33 -81 41 -71 54 10 12 10 15 -1 15 -9 0 -8 4 3
13 9 6 26 41 38 77 27 81 49 130 68 153 8 9 12 17 8 17 -3 0 1 11 10 25 9 14
13 25 10 25 -3 0 5 18 19 40 14 22 25 42 25 45 0 3 11 17 25 31 14 14 25 30
25 36 0 14 46 68 53 62 3 -3 4 3 4 13 -1 12 6 19 21 21 12 2 20 8 17 13 -4 5
-1 9 5 9 7 0 10 6 8 12 -5 13 11 37 25 38 4 0 8 -3 8 -7z m1157 -1212 c28 -81
4 -173 -68 -253 -55 -62 -109 -94 -173 -105 -39 -6 -41 -5 -28 11 9 11 24 16
37 13 13 -2 22 0 21 6 -1 5 11 14 27 20 35 12 115 94 116 118 0 9 7 32 15 52
8 19 12 37 8 40 -3 3 2 13 11 22 19 19 22 90 4 102 -27 17 -53 7 -77 -27 -27
-39 -65 -121 -63 -133 4 -16 -29 -67 -51 -78 -21 -11 -21 -11 -6 7 9 10 14 25
11 33 -3 9 0 11 8 6 10 -6 12 -4 7 8 -8 20 64 162 95 189 12 10 32 18 45 18
16 0 22 4 17 13 -4 6 2 3 13 -8 11 -11 25 -36 31 -54z m82 -66 c14 -8 33 -14
43 -15 9 0 45 -20 80 -44 34 -23 76 -50 92 -59 17 -8 37 -27 45 -41 12 -24 12
-28 -6 -40 -17 -13 -21 -12 -40 5 -20 19 -44 26 -43 12 0 -5 14 -19 30 -32
l30 -24 29 22 c16 11 33 21 38 21 18 0 141 -137 157 -176 32 -77 57 -163 52
-179 -10 -25 -35 -17 -52 15 -9 17 -20 28 -25 25 -10 -6 32 -99 49 -109 5 -3
11 3 14 14 8 32 35 23 55 -17 21 -41 37 -149 26 -176 -10 -27 -32 -20 -39 13
-12 53 -25 43 -21 -15 2 -31 7 -59 10 -62 3 -4 6 -17 6 -29 0 -31 17 -40 39
-20 10 9 20 16 23 16 5 0 14 -84 22 -203 3 -64 2 -68 -20 -73 -13 -3 -24 -13
-24 -20 0 -10 7 -13 25 -8 29 7 31 -3 12 -56 -20 -57 -23 -59 -63 -48 -20 5
-42 7 -50 4 -7 -3 -16 -1 -19 4 -4 6 -1 10 4 10 6 0 11 5 11 11 0 6 -6 9 -14
6 -18 -7 -29 32 -14 51 10 11 8 13 -12 10 -21 -2 -25 1 -25 22 0 16 -5 24 -14
22 -9 -2 -11 3 -6 15 4 10 9 35 11 55 3 30 -1 40 -19 53 -19 13 -20 17 -7 26
13 9 13 10 -2 6 -9 -3 -19 -3 -22 0 -9 10 15 33 34 33 16 0 35 38 25 49 -3 2
-5 -1 -5 -7 0 -7 -4 -12 -10 -12 -5 0 -10 9 -10 19 0 11 -5 21 -12 23 -7 3 -9
12 -5 22 6 15 10 16 22 6 22 -18 28 -7 20 39 -4 25 -14 45 -25 51 -24 13 -33
-1 -21 -33 8 -19 6 -27 -4 -31 -17 -6 -29 10 -21 29 3 9 0 12 -10 8 -7 -3 -14
-1 -14 5 0 6 6 13 13 15 7 3 4 6 -6 6 -10 1 -16 5 -12 10 3 5 1 13 -5 16 -6 4
-8 16 -4 27 5 18 3 20 -12 14 -34 -13 -38 -11 -39 17 -1 31 9 35 24 10 7 -14
13 -15 22 -6 9 9 6 19 -10 42 -26 36 -41 39 -48 11 -6 -21 -33 -28 -33 -9 0 6
-7 9 -15 5 -8 -3 -15 -1 -15 3 0 12 29 23 41 15 5 -3 9 2 9 10 0 8 -11 16 -27
18 -14 2 -28 9 -29 16 -1 7 0 8 2 3 7 -13 34 -2 34 13 0 6 -11 28 -25 49 -27
39 -61 51 -52 18 5 -21 -23 -24 -36 -3 -12 18 -23 15 -52 -14 -14 -14 -29 -23
-33 -19 -4 4 2 13 13 21 17 13 18 16 5 25 -12 8 -10 9 8 4 12 -4 22 -2 22 4 0
5 -10 17 -22 26 -21 15 -21 16 -3 11 11 -3 26 -2 34 3 10 7 6 9 -15 10 -54 1
-61 2 -90 26 l-29 23 24 26 c14 14 19 26 13 26 -7 0 -12 -4 -12 -9 0 -5 -9
-11 -21 -14 -15 -4 -19 -2 -15 9 8 20 -4 17 -25 -7 -11 -12 -25 -19 -34 -15
-10 3 -15 0 -15 -11 0 -14 -2 -14 -20 2 -26 23 -53 13 -45 -17 5 -19 4 -20 -5
-6 -18 29 -1 51 35 45 18 -3 38 0 44 6 6 6 11 7 11 3 0 -5 6 -3 14 4 15 12 11
40 -6 40 -5 0 -6 -4 -3 -10 3 -5 -3 -10 -14 -10 -27 0 -26 7 1 29 13 11 18 23
13 30 -5 9 -10 10 -14 3 -4 -7 -12 -8 -21 -2 -11 7 -9 13 13 30 15 12 25 25
22 29 -2 5 7 19 20 31 14 13 25 31 25 40 0 9 5 21 11 27 12 12 15 31 18 91 1
36 5 37 41 17z m-2070 -25 c0 -6 -9 -29 -20 -50 -11 -22 -30 -59 -41 -82 -12
-24 -28 -47 -35 -51 -8 -4 -14 -15 -14 -24 0 -14 2 -14 25 1 32 21 45 20 19
-2 -27 -23 -49 -62 -34 -62 17 0 11 -13 -20 -47 -17 -18 -26 -34 -20 -38 13
-8 80 14 80 26 0 5 8 9 17 9 14 0 13 -3 -5 -23 -24 -26 -28 -43 -10 -49 7 -3
9 -12 4 -24 -7 -18 -8 -18 -18 -1 -9 18 -12 17 -39 -9 -30 -28 -38 -59 -18
-66 8 -3 8 -10 -2 -26 -12 -19 -11 -23 6 -36 20 -15 20 -15 -2 -16 -12 0 -25
5 -28 10 -4 6 -24 18 -46 27 -21 8 -39 21 -39 28 0 8 -4 16 -9 19 -15 10 -41
-5 -41 -23 0 -9 -6 -25 -14 -36 -7 -11 -19 -38 -26 -60 -7 -22 -20 -45 -29
-52 -9 -6 -14 -13 -11 -15 8 -5 72 -34 103 -47 15 -6 25 -16 22 -21 -9 -14
-24 -12 -70 10 -35 16 -42 17 -56 4 -9 -8 -19 -11 -23 -7 -4 4 -4 0 0 -10 3
-9 0 -27 -9 -40 -18 -28 -32 -87 -20 -87 5 0 17 17 26 38 9 20 25 47 35 59 15
21 20 22 55 11 42 -13 54 -44 12 -34 -18 5 -25 2 -25 -9 0 -13 -3 -13 -20 -3
-24 15 -26 12 -50 -49 -18 -49 -18 -50 2 -67 19 -17 19 -16 13 3 -3 10 -1 22
5 26 5 3 10 -1 10 -9 0 -21 16 -20 24 1 5 12 9 14 18 5 6 -6 10 -13 7 -15 -2
-2 -18 -15 -36 -29 -28 -22 -37 -25 -75 -18 -45 9 -69 3 -47 -10 10 -6 9 -12
-3 -24 -9 -9 -18 -21 -21 -28 -2 -7 -6 -11 -9 -8 -61 70 -68 98 -30 127 14 11
14 15 -2 32 -24 27 -13 44 19 29 31 -14 59 8 76 61 6 20 15 41 20 47 16 20 48
139 40 147 -9 9 -23 -19 -72 -145 -33 -87 -44 -99 -67 -76 -29 29 -4 98 28 78
36 -23 42 2 8 30 -22 18 -23 19 -6 52 9 18 19 43 23 56 15 51 148 262 166 262
4 0 11 -4 14 -10 3 -5 11 -10 17 -10 6 0 3 11 -6 25 -13 20 -14 29 -4 50 13
28 26 32 34 10 4 -8 13 -15 21 -15 10 0 13 -6 9 -15 -3 -8 -9 -22 -12 -30 -3
-8 -1 -15 4 -15 13 0 52 49 52 66 0 7 6 14 13 17 9 4 9 8 -1 23 -35 53 -35 59
-6 100 27 38 142 143 157 144 4 0 7 -5 7 -10z m1467 -965 c-4 -38 -23 -95 -62
-180 -98 -217 -109 -235 -147 -235 -17 0 -18 2 -3 30 14 26 14 30 0 30 -20 0
-49 -46 -41 -65 3 -9 2 -14 -3 -11 -5 3 -11 0 -14 -8 -3 -7 -25 -22 -50 -34
-37 -17 -44 -25 -40 -42 9 -33 20 -33 55 1 28 27 97 69 112 69 8 0 -17 -51
-46 -97 -26 -40 -66 -60 -109 -54 -9 1 -28 -3 -42 -8 -31 -12 -133 16 -173 48
-29 22 -84 100 -84 118 0 16 53 0 79 -24 25 -23 125 -58 140 -48 8 4 -4 17
-31 34 -39 25 -60 48 -93 103 -5 9 -24 38 -42 63 -17 26 -45 80 -62 120 -17
40 -36 86 -43 101 l-12 29 -4 -29 c-2 -16 2 -41 8 -55 35 -77 89 -175 133
-241 28 -41 42 -68 31 -60 -24 20 -90 50 -109 50 -19 0 -51 51 -71 115 -8 28
-19 59 -23 70 -52 134 -66 229 -50 328 8 47 15 67 26 67 8 0 37 -22 65 -50 29
-27 55 -47 59 -45 4 3 9 -1 12 -8 3 -8 33 -24 67 -37 55 -21 68 -22 106 -12
55 15 169 88 235 152 28 27 55 47 59 45 4 -3 10 5 13 16 5 18 9 19 27 9 18 -9
25 -8 41 6 10 9 19 14 19 9 0 -4 6 -2 14 4 8 6 17 37 21 68 4 31 10 63 13 72
8 18 24 -354 19 -414z m68 106 c5 -148 -29 -318 -103 -523 l-35 -96 -67 -31
c-88 -41 -97 -40 -69 7 30 49 120 233 174 353 61 137 94 296 65 314 -5 3 -10
26 -10 51 l0 44 21 -21 c18 -18 22 -35 24 -98z m-910 -11 c-7 -95 75 -363 162
-529 29 -57 52 -105 50 -107 -6 -6 -90 28 -109 44 -23 19 -62 120 -87 227 -12
50 -26 106 -31 125 -5 19 -14 72 -21 117 -12 80 -12 83 12 117 13 20 25 36 25
36 1 0 1 -14 -1 -30z m-367 -316 c103 -109 473 -320 652 -372 19 -6 54 -16 78
-23 48 -14 80 -34 70 -44 -12 -12 -240 68 -381 134 -229 107 -236 111 -372
226 -78 65 -113 100 -109 110 9 22 16 19 62 -31z m1832 17 c0 -12 -62 -64 -98
-82 -15 -8 -61 -33 -102 -57 -164 -96 -338 -175 -554 -253 -123 -44 -116 -42
-116 -31 0 8 28 22 200 95 52 22 100 44 107 49 6 5 85 46 175 92 200 101 295
153 328 177 27 20 60 25 60 10z m-1239 -441 c35 -22 78 -46 95 -54 l31 -14 0
-81 c-1 -45 -4 -81 -8 -81 -16 0 -103 123 -183 258 -11 19 -3 15 65 -28z
m1400 -544 c48 -9 124 -32 170 -51 46 -19 89 -35 96 -35 7 0 28 -33 46 -73 19
-41 62 -118 97 -173 35 -54 69 -110 77 -124 8 -14 23 -38 33 -55 10 -16 19
-38 19 -48 1 -10 5 -16 10 -12 13 7 47 -43 56 -82 4 -21 13 -33 23 -33 19 -1
22 -5 109 -135 88 -133 136 -222 123 -230 -14 -8 -95 76 -148 153 -51 74 -50
71 -66 127 -21 69 -14 16 17 -135 35 -165 58 -333 48 -343 -13 -13 -45 39 -81
128 -18 44 -36 89 -41 100 -28 66 -48 179 -45 262 2 48 2 68 -1 43 -2 -24 -8
-49 -12 -55 -5 -5 -4 -37 1 -70 5 -33 11 -78 14 -100 2 -22 11 -95 20 -162 9
-67 14 -129 12 -139 -3 -18 -58 63 -115 168 -13 23 -26 44 -30 47 -11 8 -58
73 -66 91 -4 8 -18 33 -31 55 -14 22 -41 71 -61 109 -20 37 -52 93 -71 122
-19 30 -43 73 -53 97 -10 23 -51 101 -91 172 -65 116 -127 241 -180 362 l-19
42 27 -4 c15 -2 66 -11 113 -19z m-2228 -667 c15 -11 34 -36 43 -54 28 -59
120 -176 161 -204 84 -57 143 -103 143 -112 0 -17 -202 -50 -339 -54 -61 -2
-76 0 -92 16 -33 33 -34 70 -3 107 32 38 56 40 98 9 64 -49 127 -80 138 -69 7
7 -3 17 -33 32 -24 12 -69 37 -99 55 -39 23 -63 32 -82 28 -39 -7 -69 27 -66
74 5 64 25 63 123 -3 115 -79 183 -116 204 -112 10 3 0 12 -29 27 -70 36 -228
159 -254 198 -20 29 -23 39 -14 59 14 31 65 32 101 3z m2061 -124 c34 -19 72
-43 85 -53 l24 -19 -27 -19 c-15 -10 -47 -34 -71 -51 -24 -18 -48 -33 -53 -33
-5 0 -16 -7 -23 -16 -13 -16 -58 -39 -71 -36 -5 1 -8 -2 -8 -6 0 -4 -16 -8
-36 -8 -19 0 -38 -5 -42 -10 -8 -11 -38 -26 -62 -30 -52 -10 -216 -58 -221
-66 -3 -5 -10 -8 -15 -7 -5 1 -11 0 -14 -1 -3 -1 -22 -3 -44 -4 -21 -2 -41 -8
-45 -15 -5 -7 -23 -10 -44 -8 -24 3 -41 -1 -49 -10 -6 -8 -20 -12 -31 -9 -11
3 -37 -2 -58 -11 -43 -17 -73 -5 -62 24 4 10 2 14 -4 10 -22 -14 -26 59 -6
113 3 8 7 20 8 25 2 6 14 36 28 68 31 69 36 71 222 107 186 35 260 50 445 90
75 16 111 11 174 -25z"/>
<path d="M2796 3752 c-3 -6 -23 -13 -43 -17 -21 -3 -58 -13 -82 -21 -115 -38
-241 -54 -440 -55 -209 -1 -295 9 -466 55 -49 13 -97 26 -105 28 -12 2 -14 -6
-13 -37 5 -82 71 -214 143 -285 101 -100 297 -170 474 -170 134 1 175 13 321
94 68 39 183 176 213 257 25 68 33 150 15 156 -6 2 -14 0 -17 -5z m1 -44 c-2
-7 -12 -12 -21 -12 -19 2 -22 -15 -2 -22 8 -3 11 -15 8 -29 -2 -14 -8 -22 -13
-19 -5 3 -6 -2 -3 -10 7 -19 -79 -70 -107 -63 -12 3 -22 0 -25 -8 -7 -16 -62
-37 -76 -29 -5 4 -20 2 -31 -4 -12 -6 -42 -15 -67 -21 -44 -10 -43 -10 20 -5
55 4 132 21 228 49 38 12 25 -12 -45 -83 -78 -78 -141 -122 -222 -154 -76 -30
-263 -32 -361 -4 -134 38 -242 101 -295 171 -35 44 -28 54 14 20 28 -25 36
-25 32 -1 -1 5 15 6 36 3 77 -12 163 -19 163 -14 0 3 -30 10 -67 16 -111 19
-141 30 -148 51 -8 24 -25 26 -25 3 0 -13 -3 -14 -12 -5 -7 7 -19 12 -28 12
-8 0 -21 10 -29 22 -23 37 -50 127 -40 133 5 4 9 1 9 -5 0 -6 8 -9 18 -5 11 3
52 -2 93 -11 281 -60 593 -60 844 2 39 9 82 18 98 19 15 1 30 5 34 8 11 12 25
8 20 -5z"/>
<path d="M4270 936 c0 -16 52 -118 69 -138 12 -12 21 -25 21 -30 0 -11 61 -78
71 -78 5 0 9 28 8 63 l0 62 -76 60 c-78 61 -93 71 -93 61z"/>
</g>
</svg>
